<?xml version="1.0" encoding="utf-8"?>
<!-- Generator: Adobe Illustrator 16.0.4, SVG Export Plug-In . SVG Version: 6.00 Build 0)  -->
<!DOCTYPE svg PUBLIC "-//W3C//DTD SVG 1.1//EN" "http://www.w3.org/Graphics/SVG/1.1/DTD/svg11.dtd">
<svg version="1.1" id="Layer_1" xmlns="http://www.w3.org/2000/svg" xmlns:xlink="http://www.w3.org/1999/xlink" x="0px" y="0px"
	 width="300px" height="300px" viewBox="0 0 300 300" enable-background="new 0 0 300 300" xml:space="preserve">
<g>
	<circle fill="#D4472C" cx="149.875" cy="150.5" r="120.5"/>
	<line fill="none" stroke="#AA202E" stroke-width="5" stroke-miterlimit="10" x1="149.5" y1="30" x2="149.5" y2="271"/>
	<g>
		<g>
			<line fill="none" stroke="#FFFFFF" stroke-width="3" stroke-miterlimit="10" x1="118.333" y1="35" x2="118.333" y2="39"/>
			
				<line fill="none" stroke="#FFFFFF" stroke-width="3" stroke-miterlimit="10" stroke-dasharray="8.2593,8.2593" x1="118.333" y1="47.259" x2="118.333" y2="257.871"/>
			<line fill="none" stroke="#FFFFFF" stroke-width="3" stroke-miterlimit="10" x1="118.333" y1="262" x2="118.333" y2="266"/>
		</g>
	</g>
	<g>
		<g>
			<line fill="none" stroke="#FFFFFF" stroke-width="3" stroke-miterlimit="10" x1="180.334" y1="35" x2="180.334" y2="39"/>
			
				<line fill="none" stroke="#FFFFFF" stroke-width="3" stroke-miterlimit="10" stroke-dasharray="8.2593,8.2593" x1="180.334" y1="47.259" x2="180.334" y2="257.871"/>
			<line fill="none" stroke="#FFFFFF" stroke-width="3" stroke-miterlimit="10" x1="180.334" y1="262" x2="180.334" y2="266"/>
		</g>
	</g>
</g>
<path opacity="0.4" fill="#7F2C20" d="M234.685,235.354c-47.059,47.059-123.354,47.058-170.413,0
	c-47.058-47.059-47.059-123.354,0-170.413c-3.447,36.858-4.631,80.928,42.427,127.986
	C153.756,239.984,190.225,242.513,234.685,235.354z"/>
</svg>
