<?xml version="1.0" encoding="utf-8"?>
<!-- Generator: Adobe Illustrator 16.0.4, SVG Export Plug-In . SVG Version: 6.00 Build 0)  -->
<!DOCTYPE svg PUBLIC "-//W3C//DTD SVG 1.1//EN" "http://www.w3.org/Graphics/SVG/1.1/DTD/svg11.dtd">
<svg version="1.1" id="Layer_1" xmlns="http://www.w3.org/2000/svg" xmlns:xlink="http://www.w3.org/1999/xlink" x="0px" y="0px"
	 width="101.833px" height="130px" viewBox="-75.5 727.5 101.833 130" enable-background="new -75.5 727.5 101.833 130"
	 xml:space="preserve">
<g>
	<path fill="#D79D74" d="M-44.026,769.911c0,0.776-0.629,1.406-1.405,1.406h-9.278c-0.776,0-1.404-0.63-1.404-1.406v-15.832
		c0-0.775,0.628-1.404,1.404-1.404h9.278c0.775,0,1.405,0.629,1.405,1.404V769.911L-44.026,769.911z"/>
	<g>
		<g>
			<polygon fill="#C6E6E4" points="-74.5,804.43 -74.5,772.254 -57.986,763.146 -56.369,763.146 -50.198,767.019 -50.198,804.43 			
				"/>
			<polygon fill="#C6E6E4" points="-26.001,804.43 -26.001,772.254 -42.516,763.146 -44.132,763.146 -50.304,767.019 
				-50.304,804.43 			"/>
		</g>
		<polyline fill="#3A7B36" points="-65.604,767.316 -50.325,783.191 -50.325,785.831 -67.265,768.253 		"/>
		<polyline fill="#3A7B36" points="-35.003,767.316 -50.283,783.191 -50.283,785.831 -33.343,768.253 		"/>
		<polygon fill="#F4F8F9" points="-50.325,766.891 -59.369,770.019 -57.986,763.146 -56.369,763.146 		"/>
		<polygon fill="#F4F8F9" points="-50.198,766.891 -40.919,770.019 -42.536,763.146 -44.153,763.146 		"/>
		<polyline opacity="0.2" fill="none" stroke="#00A3DB" stroke-miterlimit="10" enable-background="new    " points="
			-35.685,804.558 -35.685,780.872 -26.682,771.869 		"/>
		<polyline opacity="0.2" fill="none" stroke="#00A3DB" stroke-miterlimit="10" enable-background="new    " points="
			-64.731,804.558 -64.731,780.872 -73.733,771.869 		"/>
	</g>
	<path fill="#EDBB94" d="M-38.918,756.123c0,0.774-0.629,1.403-1.405,1.403h-19.237c-0.776,0-1.405-0.629-1.405-1.403v-13.449
		c0-0.776,0.629-1.405,1.405-1.405h19.237c0.776,0,1.405,0.629,1.405,1.405V756.123L-38.918,756.123z"/>
	<circle fill="#291B11" cx="-54.667" cy="744.939" r="1.252"/>
	<circle fill="#291B11" cx="-45.665" cy="744.939" r="1.252"/>
	<path fill="#FFFFFF" d="M-56.848,749.718c0.096,0.031,1.819,1.403,6.512,1.403s6.512-1.117,6.512-1.117s-0.51,4.118-6.512,4.118
		C-56.337,754.122-56.848,749.718-56.848,749.718z"/>
	<path fill="#D081AA" d="M-50.336,744.355c0,0-1.053,1.819-1.053,3.382c0,1.565,1.085,1.788,1.085,1.788s1.118,0.256,1.118-1.947
		C-49.187,746.109-50.336,744.355-50.336,744.355z"/>
	<ellipse fill="#EDBB94" cx="-50.24" cy="757.475" rx="3.958" ry="1.883"/>
	<path fill="#3B6A31" d="M-61.264,743.951c0,0-11.491-13.11,11.321-15.791c0,0,20.515,2.511,10.896,15.875
		C-42.536,742.674-49.602,740.035-61.264,743.951z"/>
	<path fill="#4A813A" d="M-60.156,742.077c0.255-0.254,4.383-2.384,9.746-2.384c0,0,4.979-0.341,10.598,2.471
		c-0.596,1.191-0.596,1.191-0.596,1.191s-4.598-1.874-10.044-1.704c-5.448,0.172-9.108,1.618-9.108,1.618L-60.156,742.077z"/>
	<ellipse fill="#4A813A" cx="-49.985" cy="728.202" rx="1.979" ry="0.702"/>
</g>
<g>
	<path fill="#D79D74" d="M7.476,780.457c0,0.775-0.629,1.404-1.405,1.404h-9.278c-0.776,0-1.405-0.629-1.405-1.404v-15.832
		c0-0.776,0.628-1.405,1.405-1.405h9.278c0.775,0,1.405,0.629,1.405,1.405V780.457L7.476,780.457z"/>
	<g>
		<g>
			<polygon fill="#C6E6E4" points="-22.999,814.975 -22.999,782.799 -6.485,773.69 -4.867,773.69 1.304,777.562 1.304,814.975 			
				"/>
			<polygon fill="#C6E6E4" points="25.5,814.975 25.5,782.799 8.986,773.69 7.369,773.69 1.198,777.562 1.198,814.975 			"/>
		</g>
		<polyline fill="#3A7B36" points="-14.103,777.86 1.177,793.736 1.177,796.376 -15.763,778.798 		"/>
		<polyline fill="#3A7B36" points="16.499,777.86 1.219,793.736 1.219,796.376 18.158,778.798 		"/>
		<polygon fill="#F4F8F9" points="1.177,777.436 -7.868,780.563 -6.485,773.69 -4.867,773.69 		"/>
		<polygon fill="#F4F8F9" points="1.304,777.436 10.583,780.563 8.966,773.69 7.349,773.69 		"/>
		<polyline opacity="0.2" fill="none" stroke="#00A3DB" stroke-miterlimit="10" enable-background="new    " points="
			15.817,815.102 15.817,791.416 24.819,782.415 		"/>
		<polyline opacity="0.2" fill="none" stroke="#00A3DB" stroke-miterlimit="10" enable-background="new    " points="
			-13.23,815.102 -13.23,791.416 -22.231,782.415 		"/>
	</g>
	<path fill="#EDBB94" d="M12.583,766.667c0,0.775-0.629,1.403-1.404,1.403H-8.059c-0.776,0-1.405-0.628-1.405-1.403v-13.448
		c0-0.776,0.629-1.405,1.405-1.405h19.238c0.775,0,1.404,0.629,1.404,1.405V766.667L12.583,766.667z"/>
	<circle fill="#291B11" cx="-3.165" cy="755.484" r="1.252"/>
	<circle fill="#291B11" cx="5.837" cy="755.484" r="1.252"/>
	<path fill="#FFFFFF" d="M-5.346,760.262c0.096,0.032,1.819,1.404,6.512,1.404s6.512-1.117,6.512-1.117s-0.511,4.117-6.512,4.117
		C-4.835,764.666-5.346,760.262-5.346,760.262z"/>
	<path fill="#D081AA" d="M1.166,754.899c0,0-1.053,1.82-1.053,3.383c0,1.564,1.085,1.788,1.085,1.788s1.117,0.255,1.117-1.947
		C2.315,756.653,1.166,754.899,1.166,754.899z"/>
	<ellipse fill="#EDBB94" cx="1.261" cy="768.018" rx="3.958" ry="1.883"/>
	<path fill="#3B6A31" d="M-9.762,754.494c0,0-11.492-13.109,11.321-15.79c0,0,20.515,2.513,10.896,15.876
		C8.966,753.219,1.9,750.579-9.762,754.494z"/>
	<path fill="#4A813A" d="M-8.655,752.623c0.255-0.256,4.383-2.385,9.746-2.385c0,0,4.979-0.34,10.599,2.469
		c-0.597,1.192-0.597,1.192-0.597,1.192s-4.596-1.872-10.044-1.704c-5.448,0.172-9.108,1.619-9.108,1.619L-8.655,752.623z"/>
	<ellipse fill="#4A813A" cx="1.517" cy="738.747" rx="1.98" ry="0.702"/>
</g>
</svg>
