<?xml version="1.0" encoding="utf-8"?>
<!-- Generator: Adobe Illustrator 16.0.4, SVG Export Plug-In . SVG Version: 6.00 Build 0)  -->
<!DOCTYPE svg PUBLIC "-//W3C//DTD SVG 1.1//EN" "http://www.w3.org/Graphics/SVG/1.1/DTD/svg11.dtd">
<svg version="1.1" id="Layer_1" xmlns="http://www.w3.org/2000/svg" xmlns:xlink="http://www.w3.org/1999/xlink" x="0px" y="0px"
	 width="612px" height="792px" viewBox="0 0 612 792" enable-background="new 0 0 612 792" xml:space="preserve">
<g>
	<path fill="#D79D74" d="M369.006,435.434c0,7.858-6.369,14.226-14.227,14.226H260.8c-7.856,0-14.225-6.367-14.225-14.226V275.068
		c0-7.857,6.369-14.226,14.225-14.226h93.979c7.857,0,14.227,6.369,14.227,14.226V435.434z"/>
	<g>
		<g>
			<polygon fill="#C6E6E4" points="60.343,785.051 60.343,459.146 227.606,366.891 243.988,366.891 306.496,406.121 
				306.496,785.051 			"/>
			<polygon fill="#C6E6E4" points="551.572,785.051 551.572,459.146 384.308,366.891 367.926,366.891 305.418,406.121 
				305.418,785.051 			"/>
		</g>
		<polyline fill="#3A7B36" points="150.442,409.139 305.204,569.934 305.204,596.663 133.629,418.621 		"/>
		<polyline fill="#3A7B36" points="460.396,409.139 305.636,569.934 305.636,596.663 477.209,418.621 		"/>
		<polygon fill="#F4F8F9" points="305.204,404.827 213.597,436.512 227.606,366.891 243.988,366.891 		"/>
		<polygon fill="#F4F8F9" points="306.497,404.827 400.476,436.512 384.095,366.891 367.713,366.891 		"/>
		<polyline opacity="0.2" fill="none" stroke="#00A3DB" stroke-width="5" stroke-miterlimit="10" points="453.5,786.343 
			453.5,546.44 544.677,455.265 		"/>
		<polyline opacity="0.2" fill="none" stroke="#00A3DB" stroke-width="5" stroke-miterlimit="10" points="159.28,786.343 
			159.28,546.44 68.104,455.265 		"/>
	</g>
	<path fill="#EDBB94" d="M420.737,295.761c0,7.855-6.369,14.226-14.227,14.226H211.657c-7.857,0-14.226-6.371-14.226-14.226V159.536
		c0-7.857,6.369-14.226,14.226-14.226h194.854c7.857,0,14.227,6.369,14.227,14.226V295.761z"/>
	<circle fill="#291B11" cx="261.233" cy="182.491" r="12.682"/>
	<circle fill="#291B11" cx="352.409" cy="182.491" r="12.682"/>
	<path fill="#FFFFFF" d="M239.139,230.881c0.97,0.323,18.429,14.226,65.957,14.226s65.958-11.316,65.958-11.316
		S365.88,275.5,305.096,275.5S239.139,230.881,239.139,230.881z"/>
	<path fill="#D081AA" d="M305.096,176.564c0,0-10.669,18.429-10.669,34.271c0,15.843,10.993,18.106,10.993,18.106
		s11.317,2.586,11.317-19.723C316.736,194.333,305.096,176.564,305.096,176.564z"/>
	<ellipse fill="#EDBB94" cx="306.066" cy="309.448" rx="40.092" ry="19.076"/>
	<path fill="#3B6A31" d="M194.414,172.469c0,0-116.395-132.776,114.67-159.935c0,0,207.787,25.435,110.359,160.797
		C384.094,159.536,312.533,132.808,194.414,172.469z"/>
	<path fill="#4A813A" d="M205.622,153.501c2.586-2.587,44.403-24.141,98.72-24.141c0,0,50.437-3.449,107.341,25.003
		c-6.034,12.071-6.034,12.071-6.034,12.071s-46.56-18.968-101.739-17.244c-55.179,1.725-92.252,16.382-92.252,16.382
		L205.622,153.501z"/>
	<ellipse fill="#4A813A" cx="308.653" cy="12.964" rx="20.046" ry="7.113"/>
</g>
</svg>
