<?xml version="1.0" encoding="utf-8"?>
<!-- Generator: Adobe Illustrator 16.0.4, SVG Export Plug-In . SVG Version: 6.00 Build 0)  -->
<!DOCTYPE svg PUBLIC "-//W3C//DTD SVG 1.1//EN" "http://www.w3.org/Graphics/SVG/1.1/DTD/svg11.dtd">
<svg version="1.1" id="Layer_1" xmlns="http://www.w3.org/2000/svg" xmlns:xlink="http://www.w3.org/1999/xlink" x="0px" y="0px"
	 width="103px" height="48px" viewBox="0 0 103 48" enable-background="new 0 0 103 48" xml:space="preserve">
<g>
	<path fill="#B8B275" d="M101,23.417c0,7.456-6.045,13.5-13.5,13.5h-72c-7.456,0-13.5-6.044-13.5-13.5l0,0
		c0-7.456,6.044-13.5,13.5-13.5h72C94.955,9.917,101,15.961,101,23.417L101,23.417z"/>
	<path fill="#A29B61" d="M101,23.417c0,7.456-6.045,13.5-13.5,13.5h-72c-7.456,0-13.5-6.044-13.5-13.5l0,0
		c5.5,2.5,6.044,2.5,13.5,2.5h72C94.955,25.917,95.25,25.917,101,23.417L101,23.417z"/>
	<path fill="#F3E797" d="M43,36.042c0,4.764-3.861,8.625-8.625,8.625l0,0c-4.764,0-8.625-3.861-8.625-8.625v-25.25
		c0-4.764,3.861-8.625,8.625-8.625l0,0c4.764,0,8.625,3.861,8.625,8.625V36.042z"/>
	<path fill="#F3E797" d="M60.5,36.042c0,4.764-3.861,8.625-8.625,8.625l0,0c-4.764,0-8.625-3.861-8.625-8.625v-25.25
		c0-4.764,3.861-8.625,8.625-8.625l0,0c4.764,0,8.625,3.861,8.625,8.625V36.042z"/>
	<path fill="#F3E797" d="M78,36.042c0,4.764-3.861,8.625-8.625,8.625l0,0c-4.764,0-8.625-3.861-8.625-8.625v-25.25
		c0-4.764,3.861-8.625,8.625-8.625l0,0c4.764,0,8.625,3.861,8.625,8.625V36.042z"/>
	<path fill="#CCC284" d="M43,36.042c0,4.764-3.861,8.625-8.625,8.625l0,0c-4.764,0-8.625-3.861-8.625-8.625v-15.25
		c1.438,1.688,3.861,4.375,8.625,4.375l0,0c4.764,0,6.938-2.625,8.625-4.375V36.042z"/>
	<path fill="#F3E797" d="M60.5,36.042c0,4.764-3.861,8.625-8.625,8.625l0,0c-4.764,0-8.625-3.861-8.625-8.625v-25.25
		c0-4.764,3.861-8.625,8.625-8.625l0,0c4.764,0,8.625,3.861,8.625,8.625V36.042z"/>
	<path fill="#CCC284" d="M60.5,36.042c0,4.764-3.861,8.625-8.625,8.625l0,0c-4.764,0-8.625-3.861-8.625-8.625v-15.25
		c1.438,1.688,3.861,4.375,8.625,4.375l0,0c4.764,0,6.938-2.625,8.625-4.375V36.042z"/>
	<path fill="#F3E797" d="M78,36.042c0,4.764-3.861,8.625-8.625,8.625l0,0c-4.764,0-8.625-3.861-8.625-8.625v-25.25
		c0-4.764,3.861-8.625,8.625-8.625l0,0c4.764,0,8.625,3.861,8.625,8.625V36.042z"/>
	<path fill="#CCC284" d="M78,36.042c0,4.764-3.861,8.625-8.625,8.625l0,0c-4.764,0-8.625-3.861-8.625-8.625v-15.25
		c1.438,1.688,3.861,4.375,8.625,4.375l0,0c4.764,0,6.938-2.625,8.625-4.375V36.042z"/>
</g>
</svg>
